<mxfile host="app.diagrams.net" modified="2024-06-13T19:08:42.984Z" agent="Mozilla/5.0 (Windows NT 10.0; Win64; x64) AppleWebKit/537.36 (KHTML, like Gecko) Chrome/126.0.0.0 Safari/537.36" etag="37FGFmxHlaBLAAZvXq_R" version="24.5.3" type="github">
  <diagram id="6a731a19-8d31-9384-78a2-239565b7b9f0" name="Page-1">
    <mxGraphModel dx="2041" dy="1560" grid="1" gridSize="10" guides="1" tooltips="1" connect="1" arrows="1" fold="1" page="1" pageScale="1" pageWidth="827" pageHeight="1169" background="none" math="0" shadow="0">
      <root>
        <mxCell id="0" />
        <mxCell id="1" parent="0" />
        <mxCell id="FgSyC8rnYt8sqBh_oiqT-2257" value="" style="shape=mxgraph.cisco.computers_and_peripherals.pc;html=1;pointerEvents=1;dashed=0;fillColor=#036897;strokeColor=#ffffff;strokeWidth=2;verticalLabelPosition=bottom;verticalAlign=top;align=center;outlineConnect=0;" parent="1" vertex="1">
          <mxGeometry x="1576" y="810" width="78" height="70" as="geometry" />
        </mxCell>
        <mxCell id="FgSyC8rnYt8sqBh_oiqT-2490" style="edgeStyle=orthogonalEdgeStyle;rounded=0;orthogonalLoop=1;jettySize=auto;html=1;" parent="1" source="FgSyC8rnYt8sqBh_oiqT-2258" target="FgSyC8rnYt8sqBh_oiqT-2399" edge="1">
          <mxGeometry relative="1" as="geometry">
            <Array as="points">
              <mxPoint x="1519" y="680" />
              <mxPoint x="1390" y="680" />
            </Array>
          </mxGeometry>
        </mxCell>
        <mxCell id="FgSyC8rnYt8sqBh_oiqT-2258" value="" style="shape=mxgraph.cisco.computers_and_peripherals.pc;html=1;pointerEvents=1;dashed=0;fillColor=#036897;strokeColor=#ffffff;strokeWidth=2;verticalLabelPosition=bottom;verticalAlign=top;align=center;outlineConnect=0;" parent="1" vertex="1">
          <mxGeometry x="1480" y="810" width="78" height="70" as="geometry" />
        </mxCell>
        <mxCell id="FgSyC8rnYt8sqBh_oiqT-2259" value="" style="shape=mxgraph.cisco.computers_and_peripherals.pc;html=1;pointerEvents=1;dashed=0;fillColor=#036897;strokeColor=#ffffff;strokeWidth=2;verticalLabelPosition=bottom;verticalAlign=top;align=center;outlineConnect=0;" parent="1" vertex="1">
          <mxGeometry x="1380" y="810" width="78" height="70" as="geometry" />
        </mxCell>
        <mxCell id="FgSyC8rnYt8sqBh_oiqT-2275" value="" style="shape=mxgraph.cisco.computers_and_peripherals.pc;html=1;pointerEvents=1;dashed=0;fillColor=#036897;strokeColor=#ffffff;strokeWidth=2;verticalLabelPosition=bottom;verticalAlign=top;align=center;outlineConnect=0;" parent="1" vertex="1">
          <mxGeometry x="1780" y="810" width="78" height="70" as="geometry" />
        </mxCell>
        <mxCell id="FgSyC8rnYt8sqBh_oiqT-2276" value="" style="shape=mxgraph.cisco.computers_and_peripherals.pc;html=1;pointerEvents=1;dashed=0;fillColor=#036897;strokeColor=#ffffff;strokeWidth=2;verticalLabelPosition=bottom;verticalAlign=top;align=center;outlineConnect=0;" parent="1" vertex="1">
          <mxGeometry x="1680" y="810" width="78" height="70" as="geometry" />
        </mxCell>
        <mxCell id="FgSyC8rnYt8sqBh_oiqT-2497" style="edgeStyle=orthogonalEdgeStyle;rounded=0;orthogonalLoop=1;jettySize=auto;html=1;" parent="1" source="FgSyC8rnYt8sqBh_oiqT-2287" target="FgSyC8rnYt8sqBh_oiqT-2399" edge="1">
          <mxGeometry relative="1" as="geometry">
            <mxPoint x="1410" y="590" as="targetPoint" />
            <Array as="points">
              <mxPoint x="2014" y="550" />
              <mxPoint x="1410" y="550" />
            </Array>
          </mxGeometry>
        </mxCell>
        <mxCell id="FgSyC8rnYt8sqBh_oiqT-2287" value="" style="image;aspect=fixed;perimeter=ellipsePerimeter;html=1;align=center;shadow=0;dashed=0;spacingTop=3;image=img/lib/active_directory/generic_server.svg;" parent="1" vertex="1">
          <mxGeometry x="1980" y="760" width="67.2" height="120" as="geometry" />
        </mxCell>
        <mxCell id="FgSyC8rnYt8sqBh_oiqT-2292" value="" style="shape=mxgraph.cisco.computers_and_peripherals.pc;html=1;pointerEvents=1;dashed=0;fillColor=#036897;strokeColor=#ffffff;strokeWidth=2;verticalLabelPosition=bottom;verticalAlign=top;align=center;outlineConnect=0;" parent="1" vertex="1">
          <mxGeometry x="880" y="810" width="78" height="70" as="geometry" />
        </mxCell>
        <mxCell id="FgSyC8rnYt8sqBh_oiqT-2293" value="" style="shape=mxgraph.cisco.computers_and_peripherals.pc;html=1;pointerEvents=1;dashed=0;fillColor=#036897;strokeColor=#ffffff;strokeWidth=2;verticalLabelPosition=bottom;verticalAlign=top;align=center;outlineConnect=0;" parent="1" vertex="1">
          <mxGeometry x="980" y="810" width="78" height="70" as="geometry" />
        </mxCell>
        <mxCell id="FgSyC8rnYt8sqBh_oiqT-2294" value="" style="shape=mxgraph.cisco.computers_and_peripherals.pc;html=1;pointerEvents=1;dashed=0;fillColor=#036897;strokeColor=#ffffff;strokeWidth=2;verticalLabelPosition=bottom;verticalAlign=top;align=center;outlineConnect=0;" parent="1" vertex="1">
          <mxGeometry x="1080" y="810" width="78" height="70" as="geometry" />
        </mxCell>
        <mxCell id="FgSyC8rnYt8sqBh_oiqT-2486" style="edgeStyle=orthogonalEdgeStyle;rounded=0;orthogonalLoop=1;jettySize=auto;html=1;exitX=0.5;exitY=0;exitDx=0;exitDy=0;exitPerimeter=0;" parent="1" source="FgSyC8rnYt8sqBh_oiqT-2295" target="FgSyC8rnYt8sqBh_oiqT-2399" edge="1">
          <mxGeometry relative="1" as="geometry">
            <Array as="points">
              <mxPoint x="1219" y="680" />
              <mxPoint x="1330" y="680" />
            </Array>
          </mxGeometry>
        </mxCell>
        <mxCell id="FgSyC8rnYt8sqBh_oiqT-2295" value="" style="shape=mxgraph.cisco.computers_and_peripherals.pc;html=1;pointerEvents=1;dashed=0;fillColor=#036897;strokeColor=#ffffff;strokeWidth=2;verticalLabelPosition=bottom;verticalAlign=top;align=center;outlineConnect=0;" parent="1" vertex="1">
          <mxGeometry x="1180" y="810" width="78" height="70" as="geometry" />
        </mxCell>
        <mxCell id="FgSyC8rnYt8sqBh_oiqT-2487" style="edgeStyle=orthogonalEdgeStyle;rounded=0;orthogonalLoop=1;jettySize=auto;html=1;exitX=0.5;exitY=0;exitDx=0;exitDy=0;exitPerimeter=0;" parent="1" source="FgSyC8rnYt8sqBh_oiqT-2296" target="FgSyC8rnYt8sqBh_oiqT-2399" edge="1">
          <mxGeometry relative="1" as="geometry">
            <Array as="points">
              <mxPoint x="1319" y="690" />
              <mxPoint x="1350" y="690" />
            </Array>
          </mxGeometry>
        </mxCell>
        <mxCell id="FgSyC8rnYt8sqBh_oiqT-2296" value="" style="shape=mxgraph.cisco.computers_and_peripherals.pc;html=1;pointerEvents=1;dashed=0;fillColor=#036897;strokeColor=#ffffff;strokeWidth=2;verticalLabelPosition=bottom;verticalAlign=top;align=center;outlineConnect=0;" parent="1" vertex="1">
          <mxGeometry x="1280" y="810" width="78" height="70" as="geometry" />
        </mxCell>
        <mxCell id="FgSyC8rnYt8sqBh_oiqT-2399" value="" style="shape=mxgraph.cisco.switches.workgroup_switch;sketch=0;html=1;pointerEvents=1;dashed=0;fillColor=#036897;strokeColor=#ffffff;strokeWidth=2;verticalLabelPosition=bottom;verticalAlign=top;align=center;outlineConnect=0;" parent="1" vertex="1">
          <mxGeometry x="1320" y="600" width="101" height="50" as="geometry" />
        </mxCell>
        <mxCell id="FgSyC8rnYt8sqBh_oiqT-2436" value="" style="shape=mxgraph.cisco.routers.router;sketch=0;html=1;pointerEvents=1;dashed=0;fillColor=#036897;strokeColor=#ffffff;strokeWidth=2;verticalLabelPosition=bottom;verticalAlign=top;align=center;outlineConnect=0;" parent="1" vertex="1">
          <mxGeometry x="1314.5" y="380" width="112" height="60" as="geometry" />
        </mxCell>
        <mxCell id="FgSyC8rnYt8sqBh_oiqT-2499" style="edgeStyle=orthogonalEdgeStyle;rounded=0;orthogonalLoop=1;jettySize=auto;html=1;exitX=1;exitY=0.5;exitDx=0;exitDy=0;exitPerimeter=0;" parent="1" source="FgSyC8rnYt8sqBh_oiqT-2477" target="FgSyC8rnYt8sqBh_oiqT-2399" edge="1">
          <mxGeometry relative="1" as="geometry">
            <Array as="points">
              <mxPoint x="1120" y="550" />
              <mxPoint x="1350" y="550" />
            </Array>
          </mxGeometry>
        </mxCell>
        <mxCell id="FgSyC8rnYt8sqBh_oiqT-2477" value="" style="shape=mxgraph.cisco.misc.access_point;html=1;pointerEvents=1;dashed=0;fillColor=#036897;strokeColor=#ffffff;strokeWidth=2;verticalLabelPosition=bottom;verticalAlign=top;align=center;outlineConnect=0;" parent="1" vertex="1">
          <mxGeometry x="1020" y="530" width="110" height="52" as="geometry" />
        </mxCell>
        <mxCell id="FgSyC8rnYt8sqBh_oiqT-2482" style="edgeStyle=orthogonalEdgeStyle;rounded=0;orthogonalLoop=1;jettySize=auto;html=1;exitX=0.5;exitY=0;exitDx=0;exitDy=0;exitPerimeter=0;entryX=0.16;entryY=0.23;entryDx=0;entryDy=0;entryPerimeter=0;" parent="1" source="FgSyC8rnYt8sqBh_oiqT-2292" target="FgSyC8rnYt8sqBh_oiqT-2399" edge="1">
          <mxGeometry relative="1" as="geometry">
            <Array as="points">
              <mxPoint x="919" y="612" />
            </Array>
          </mxGeometry>
        </mxCell>
        <mxCell id="FgSyC8rnYt8sqBh_oiqT-2483" style="edgeStyle=orthogonalEdgeStyle;rounded=0;orthogonalLoop=1;jettySize=auto;html=1;exitX=0.5;exitY=0;exitDx=0;exitDy=0;exitPerimeter=0;entryX=0;entryY=0.5;entryDx=0;entryDy=0;entryPerimeter=0;" parent="1" source="FgSyC8rnYt8sqBh_oiqT-2293" target="FgSyC8rnYt8sqBh_oiqT-2399" edge="1">
          <mxGeometry relative="1" as="geometry" />
        </mxCell>
        <mxCell id="FgSyC8rnYt8sqBh_oiqT-2484" style="edgeStyle=orthogonalEdgeStyle;rounded=0;orthogonalLoop=1;jettySize=auto;html=1;exitX=0.5;exitY=0;exitDx=0;exitDy=0;exitPerimeter=0;entryX=0;entryY=0.98;entryDx=0;entryDy=0;entryPerimeter=0;" parent="1" source="FgSyC8rnYt8sqBh_oiqT-2294" target="FgSyC8rnYt8sqBh_oiqT-2399" edge="1">
          <mxGeometry relative="1" as="geometry">
            <Array as="points">
              <mxPoint x="1119" y="650" />
              <mxPoint x="1305" y="650" />
            </Array>
          </mxGeometry>
        </mxCell>
        <mxCell id="FgSyC8rnYt8sqBh_oiqT-2488" style="edgeStyle=orthogonalEdgeStyle;rounded=0;orthogonalLoop=1;jettySize=auto;html=1;exitX=0.5;exitY=0;exitDx=0;exitDy=0;exitPerimeter=0;entryX=0.5;entryY=0.98;entryDx=0;entryDy=0;entryPerimeter=0;" parent="1" source="FgSyC8rnYt8sqBh_oiqT-2259" target="FgSyC8rnYt8sqBh_oiqT-2399" edge="1">
          <mxGeometry relative="1" as="geometry">
            <Array as="points">
              <mxPoint x="1419" y="690" />
              <mxPoint x="1371" y="690" />
            </Array>
          </mxGeometry>
        </mxCell>
        <mxCell id="FgSyC8rnYt8sqBh_oiqT-2491" style="edgeStyle=orthogonalEdgeStyle;rounded=0;orthogonalLoop=1;jettySize=auto;html=1;exitX=0.5;exitY=0;exitDx=0;exitDy=0;exitPerimeter=0;entryX=0.87;entryY=0.74;entryDx=0;entryDy=0;entryPerimeter=0;" parent="1" source="FgSyC8rnYt8sqBh_oiqT-2257" target="FgSyC8rnYt8sqBh_oiqT-2399" edge="1">
          <mxGeometry relative="1" as="geometry">
            <Array as="points">
              <mxPoint x="1615" y="637" />
            </Array>
          </mxGeometry>
        </mxCell>
        <mxCell id="FgSyC8rnYt8sqBh_oiqT-2492" style="edgeStyle=orthogonalEdgeStyle;rounded=0;orthogonalLoop=1;jettySize=auto;html=1;exitX=0.5;exitY=0;exitDx=0;exitDy=0;exitPerimeter=0;entryX=0.98;entryY=0.5;entryDx=0;entryDy=0;entryPerimeter=0;" parent="1" source="FgSyC8rnYt8sqBh_oiqT-2276" target="FgSyC8rnYt8sqBh_oiqT-2399" edge="1">
          <mxGeometry relative="1" as="geometry">
            <Array as="points">
              <mxPoint x="1719" y="625" />
            </Array>
          </mxGeometry>
        </mxCell>
        <mxCell id="FgSyC8rnYt8sqBh_oiqT-2493" style="edgeStyle=orthogonalEdgeStyle;rounded=0;orthogonalLoop=1;jettySize=auto;html=1;exitX=0.5;exitY=0;exitDx=0;exitDy=0;exitPerimeter=0;entryX=1;entryY=0;entryDx=0;entryDy=0;entryPerimeter=0;" parent="1" source="FgSyC8rnYt8sqBh_oiqT-2275" target="FgSyC8rnYt8sqBh_oiqT-2399" edge="1">
          <mxGeometry relative="1" as="geometry">
            <Array as="points">
              <mxPoint x="1819" y="600" />
            </Array>
          </mxGeometry>
        </mxCell>
        <mxCell id="FgSyC8rnYt8sqBh_oiqT-2498" style="edgeStyle=orthogonalEdgeStyle;rounded=0;orthogonalLoop=1;jettySize=auto;html=1;exitX=0.5;exitY=1;exitDx=0;exitDy=0;exitPerimeter=0;entryX=0.5;entryY=0;entryDx=0;entryDy=0;entryPerimeter=0;" parent="1" source="FgSyC8rnYt8sqBh_oiqT-2436" target="FgSyC8rnYt8sqBh_oiqT-2399" edge="1">
          <mxGeometry relative="1" as="geometry" />
        </mxCell>
        <mxCell id="FgSyC8rnYt8sqBh_oiqT-2501" value="" style="shape=mxgraph.cisco.computers_and_peripherals.pc;html=1;pointerEvents=1;dashed=0;fillColor=#036897;strokeColor=#ffffff;strokeWidth=2;verticalLabelPosition=bottom;verticalAlign=top;align=center;outlineConnect=0;" parent="1" vertex="1">
          <mxGeometry x="3016" y="810" width="78" height="70" as="geometry" />
        </mxCell>
        <mxCell id="FgSyC8rnYt8sqBh_oiqT-2502" style="edgeStyle=orthogonalEdgeStyle;rounded=0;orthogonalLoop=1;jettySize=auto;html=1;" parent="1" source="FgSyC8rnYt8sqBh_oiqT-2503" target="FgSyC8rnYt8sqBh_oiqT-2516" edge="1">
          <mxGeometry relative="1" as="geometry">
            <Array as="points">
              <mxPoint x="2959" y="680" />
              <mxPoint x="2830" y="680" />
            </Array>
          </mxGeometry>
        </mxCell>
        <mxCell id="FgSyC8rnYt8sqBh_oiqT-2503" value="" style="shape=mxgraph.cisco.computers_and_peripherals.pc;html=1;pointerEvents=1;dashed=0;fillColor=#036897;strokeColor=#ffffff;strokeWidth=2;verticalLabelPosition=bottom;verticalAlign=top;align=center;outlineConnect=0;" parent="1" vertex="1">
          <mxGeometry x="2920" y="810" width="78" height="70" as="geometry" />
        </mxCell>
        <mxCell id="FgSyC8rnYt8sqBh_oiqT-2504" value="" style="shape=mxgraph.cisco.computers_and_peripherals.pc;html=1;pointerEvents=1;dashed=0;fillColor=#036897;strokeColor=#ffffff;strokeWidth=2;verticalLabelPosition=bottom;verticalAlign=top;align=center;outlineConnect=0;" parent="1" vertex="1">
          <mxGeometry x="2820" y="810" width="78" height="70" as="geometry" />
        </mxCell>
        <mxCell id="FgSyC8rnYt8sqBh_oiqT-2505" value="" style="shape=mxgraph.cisco.computers_and_peripherals.pc;html=1;pointerEvents=1;dashed=0;fillColor=#036897;strokeColor=#ffffff;strokeWidth=2;verticalLabelPosition=bottom;verticalAlign=top;align=center;outlineConnect=0;" parent="1" vertex="1">
          <mxGeometry x="3220" y="810" width="78" height="70" as="geometry" />
        </mxCell>
        <mxCell id="FgSyC8rnYt8sqBh_oiqT-2506" value="" style="shape=mxgraph.cisco.computers_and_peripherals.pc;html=1;pointerEvents=1;dashed=0;fillColor=#036897;strokeColor=#ffffff;strokeWidth=2;verticalLabelPosition=bottom;verticalAlign=top;align=center;outlineConnect=0;" parent="1" vertex="1">
          <mxGeometry x="3120" y="810" width="78" height="70" as="geometry" />
        </mxCell>
        <mxCell id="FgSyC8rnYt8sqBh_oiqT-2536" style="edgeStyle=orthogonalEdgeStyle;rounded=0;orthogonalLoop=1;jettySize=auto;html=1;exitX=0.5;exitY=0;exitDx=0;exitDy=0;" parent="1" source="FgSyC8rnYt8sqBh_oiqT-2508" target="FgSyC8rnYt8sqBh_oiqT-2516" edge="1">
          <mxGeometry relative="1" as="geometry">
            <Array as="points">
              <mxPoint x="2184" y="550" />
              <mxPoint x="2780" y="550" />
            </Array>
          </mxGeometry>
        </mxCell>
        <mxCell id="FgSyC8rnYt8sqBh_oiqT-2508" value="" style="image;aspect=fixed;perimeter=ellipsePerimeter;html=1;align=center;shadow=0;dashed=0;spacingTop=3;image=img/lib/active_directory/generic_server.svg;" parent="1" vertex="1">
          <mxGeometry x="2150" y="760" width="67.2" height="120" as="geometry" />
        </mxCell>
        <mxCell id="FgSyC8rnYt8sqBh_oiqT-2509" value="" style="shape=mxgraph.cisco.computers_and_peripherals.pc;html=1;pointerEvents=1;dashed=0;fillColor=#036897;strokeColor=#ffffff;strokeWidth=2;verticalLabelPosition=bottom;verticalAlign=top;align=center;outlineConnect=0;" parent="1" vertex="1">
          <mxGeometry x="2320" y="810" width="78" height="70" as="geometry" />
        </mxCell>
        <mxCell id="FgSyC8rnYt8sqBh_oiqT-2510" value="" style="shape=mxgraph.cisco.computers_and_peripherals.pc;html=1;pointerEvents=1;dashed=0;fillColor=#036897;strokeColor=#ffffff;strokeWidth=2;verticalLabelPosition=bottom;verticalAlign=top;align=center;outlineConnect=0;" parent="1" vertex="1">
          <mxGeometry x="2420" y="810" width="78" height="70" as="geometry" />
        </mxCell>
        <mxCell id="FgSyC8rnYt8sqBh_oiqT-2511" value="" style="shape=mxgraph.cisco.computers_and_peripherals.pc;html=1;pointerEvents=1;dashed=0;fillColor=#036897;strokeColor=#ffffff;strokeWidth=2;verticalLabelPosition=bottom;verticalAlign=top;align=center;outlineConnect=0;" parent="1" vertex="1">
          <mxGeometry x="2520" y="810" width="78" height="70" as="geometry" />
        </mxCell>
        <mxCell id="FgSyC8rnYt8sqBh_oiqT-2512" style="edgeStyle=orthogonalEdgeStyle;rounded=0;orthogonalLoop=1;jettySize=auto;html=1;exitX=0.5;exitY=0;exitDx=0;exitDy=0;exitPerimeter=0;" parent="1" source="FgSyC8rnYt8sqBh_oiqT-2513" target="FgSyC8rnYt8sqBh_oiqT-2516" edge="1">
          <mxGeometry relative="1" as="geometry">
            <Array as="points">
              <mxPoint x="2659" y="680" />
              <mxPoint x="2770" y="680" />
            </Array>
          </mxGeometry>
        </mxCell>
        <mxCell id="FgSyC8rnYt8sqBh_oiqT-2513" value="" style="shape=mxgraph.cisco.computers_and_peripherals.pc;html=1;pointerEvents=1;dashed=0;fillColor=#036897;strokeColor=#ffffff;strokeWidth=2;verticalLabelPosition=bottom;verticalAlign=top;align=center;outlineConnect=0;" parent="1" vertex="1">
          <mxGeometry x="2620" y="810" width="78" height="70" as="geometry" />
        </mxCell>
        <mxCell id="FgSyC8rnYt8sqBh_oiqT-2514" style="edgeStyle=orthogonalEdgeStyle;rounded=0;orthogonalLoop=1;jettySize=auto;html=1;exitX=0.5;exitY=0;exitDx=0;exitDy=0;exitPerimeter=0;" parent="1" source="FgSyC8rnYt8sqBh_oiqT-2515" target="FgSyC8rnYt8sqBh_oiqT-2516" edge="1">
          <mxGeometry relative="1" as="geometry">
            <Array as="points">
              <mxPoint x="2759" y="690" />
              <mxPoint x="2790" y="690" />
            </Array>
          </mxGeometry>
        </mxCell>
        <mxCell id="FgSyC8rnYt8sqBh_oiqT-2515" value="" style="shape=mxgraph.cisco.computers_and_peripherals.pc;html=1;pointerEvents=1;dashed=0;fillColor=#036897;strokeColor=#ffffff;strokeWidth=2;verticalLabelPosition=bottom;verticalAlign=top;align=center;outlineConnect=0;" parent="1" vertex="1">
          <mxGeometry x="2720" y="810" width="78" height="70" as="geometry" />
        </mxCell>
        <mxCell id="FgSyC8rnYt8sqBh_oiqT-2530" style="edgeStyle=orthogonalEdgeStyle;rounded=0;orthogonalLoop=1;jettySize=auto;html=1;shape=link;" parent="1" edge="1">
          <mxGeometry relative="1" as="geometry">
            <mxPoint x="1398.0023456790125" y="601.01" as="targetPoint" />
            <mxPoint x="2798.0023456790123" y="601.01" as="sourcePoint" />
            <Array as="points">
              <mxPoint x="2797.99" y="511.01" />
              <mxPoint x="1397.99" y="511.01" />
            </Array>
          </mxGeometry>
        </mxCell>
        <mxCell id="FgSyC8rnYt8sqBh_oiqT-2516" value="" style="shape=mxgraph.cisco.switches.workgroup_switch;sketch=0;html=1;pointerEvents=1;dashed=0;fillColor=#036897;strokeColor=#ffffff;strokeWidth=2;verticalLabelPosition=bottom;verticalAlign=top;align=center;outlineConnect=0;" parent="1" vertex="1">
          <mxGeometry x="2760" y="600" width="101" height="50" as="geometry" />
        </mxCell>
        <mxCell id="FgSyC8rnYt8sqBh_oiqT-2517" value="" style="shape=mxgraph.cisco.routers.router;sketch=0;html=1;pointerEvents=1;dashed=0;fillColor=#036897;strokeColor=#ffffff;strokeWidth=2;verticalLabelPosition=bottom;verticalAlign=top;align=center;outlineConnect=0;" parent="1" vertex="1">
          <mxGeometry x="2754.5" y="380" width="112" height="60" as="geometry" />
        </mxCell>
        <mxCell id="FgSyC8rnYt8sqBh_oiqT-2528" style="edgeStyle=orthogonalEdgeStyle;rounded=0;orthogonalLoop=1;jettySize=auto;html=1;exitX=0;exitY=0.5;exitDx=0;exitDy=0;exitPerimeter=0;" parent="1" source="FgSyC8rnYt8sqBh_oiqT-2519" target="FgSyC8rnYt8sqBh_oiqT-2516" edge="1">
          <mxGeometry relative="1" as="geometry">
            <Array as="points">
              <mxPoint x="2840" y="536" />
            </Array>
          </mxGeometry>
        </mxCell>
        <mxCell id="FgSyC8rnYt8sqBh_oiqT-2519" value="" style="shape=mxgraph.cisco.misc.access_point;html=1;pointerEvents=1;dashed=0;fillColor=#036897;strokeColor=#ffffff;strokeWidth=2;verticalLabelPosition=bottom;verticalAlign=top;align=center;outlineConnect=0;" parent="1" vertex="1">
          <mxGeometry x="3050" y="510" width="110" height="52" as="geometry" />
        </mxCell>
        <mxCell id="FgSyC8rnYt8sqBh_oiqT-2520" style="edgeStyle=orthogonalEdgeStyle;rounded=0;orthogonalLoop=1;jettySize=auto;html=1;exitX=0.5;exitY=0;exitDx=0;exitDy=0;exitPerimeter=0;entryX=0.16;entryY=0.23;entryDx=0;entryDy=0;entryPerimeter=0;" parent="1" source="FgSyC8rnYt8sqBh_oiqT-2509" target="FgSyC8rnYt8sqBh_oiqT-2516" edge="1">
          <mxGeometry relative="1" as="geometry">
            <Array as="points">
              <mxPoint x="2359" y="612" />
            </Array>
          </mxGeometry>
        </mxCell>
        <mxCell id="FgSyC8rnYt8sqBh_oiqT-2521" style="edgeStyle=orthogonalEdgeStyle;rounded=0;orthogonalLoop=1;jettySize=auto;html=1;exitX=0.5;exitY=0;exitDx=0;exitDy=0;exitPerimeter=0;entryX=0;entryY=0.5;entryDx=0;entryDy=0;entryPerimeter=0;" parent="1" source="FgSyC8rnYt8sqBh_oiqT-2510" target="FgSyC8rnYt8sqBh_oiqT-2516" edge="1">
          <mxGeometry relative="1" as="geometry" />
        </mxCell>
        <mxCell id="FgSyC8rnYt8sqBh_oiqT-2522" style="edgeStyle=orthogonalEdgeStyle;rounded=0;orthogonalLoop=1;jettySize=auto;html=1;exitX=0.5;exitY=0;exitDx=0;exitDy=0;exitPerimeter=0;entryX=0;entryY=0.98;entryDx=0;entryDy=0;entryPerimeter=0;" parent="1" source="FgSyC8rnYt8sqBh_oiqT-2511" target="FgSyC8rnYt8sqBh_oiqT-2516" edge="1">
          <mxGeometry relative="1" as="geometry">
            <Array as="points">
              <mxPoint x="2559" y="650" />
              <mxPoint x="2745" y="650" />
            </Array>
          </mxGeometry>
        </mxCell>
        <mxCell id="FgSyC8rnYt8sqBh_oiqT-2523" style="edgeStyle=orthogonalEdgeStyle;rounded=0;orthogonalLoop=1;jettySize=auto;html=1;exitX=0.5;exitY=0;exitDx=0;exitDy=0;exitPerimeter=0;entryX=0.5;entryY=0.98;entryDx=0;entryDy=0;entryPerimeter=0;" parent="1" source="FgSyC8rnYt8sqBh_oiqT-2504" target="FgSyC8rnYt8sqBh_oiqT-2516" edge="1">
          <mxGeometry relative="1" as="geometry">
            <Array as="points">
              <mxPoint x="2859" y="690" />
              <mxPoint x="2811" y="690" />
            </Array>
          </mxGeometry>
        </mxCell>
        <mxCell id="FgSyC8rnYt8sqBh_oiqT-2524" style="edgeStyle=orthogonalEdgeStyle;rounded=0;orthogonalLoop=1;jettySize=auto;html=1;exitX=0.5;exitY=0;exitDx=0;exitDy=0;exitPerimeter=0;entryX=0.87;entryY=0.74;entryDx=0;entryDy=0;entryPerimeter=0;" parent="1" source="FgSyC8rnYt8sqBh_oiqT-2501" target="FgSyC8rnYt8sqBh_oiqT-2516" edge="1">
          <mxGeometry relative="1" as="geometry">
            <Array as="points">
              <mxPoint x="3055" y="637" />
            </Array>
          </mxGeometry>
        </mxCell>
        <mxCell id="FgSyC8rnYt8sqBh_oiqT-2525" style="edgeStyle=orthogonalEdgeStyle;rounded=0;orthogonalLoop=1;jettySize=auto;html=1;exitX=0.5;exitY=0;exitDx=0;exitDy=0;exitPerimeter=0;entryX=0.98;entryY=0.5;entryDx=0;entryDy=0;entryPerimeter=0;" parent="1" source="FgSyC8rnYt8sqBh_oiqT-2506" target="FgSyC8rnYt8sqBh_oiqT-2516" edge="1">
          <mxGeometry relative="1" as="geometry">
            <Array as="points">
              <mxPoint x="3159" y="625" />
            </Array>
          </mxGeometry>
        </mxCell>
        <mxCell id="FgSyC8rnYt8sqBh_oiqT-2526" style="edgeStyle=orthogonalEdgeStyle;rounded=0;orthogonalLoop=1;jettySize=auto;html=1;exitX=0.5;exitY=0;exitDx=0;exitDy=0;exitPerimeter=0;entryX=1;entryY=0;entryDx=0;entryDy=0;entryPerimeter=0;" parent="1" source="FgSyC8rnYt8sqBh_oiqT-2505" target="FgSyC8rnYt8sqBh_oiqT-2516" edge="1">
          <mxGeometry relative="1" as="geometry">
            <Array as="points">
              <mxPoint x="3259" y="600" />
            </Array>
          </mxGeometry>
        </mxCell>
        <mxCell id="FgSyC8rnYt8sqBh_oiqT-2535" style="edgeStyle=orthogonalEdgeStyle;rounded=0;orthogonalLoop=1;jettySize=auto;html=1;exitX=0.5;exitY=1;exitDx=0;exitDy=0;exitPerimeter=0;entryX=0.5;entryY=0;entryDx=0;entryDy=0;entryPerimeter=0;" parent="1" source="FgSyC8rnYt8sqBh_oiqT-2517" target="FgSyC8rnYt8sqBh_oiqT-2516" edge="1">
          <mxGeometry relative="1" as="geometry" />
        </mxCell>
      </root>
    </mxGraphModel>
  </diagram>
</mxfile>
